<?xml version="1.0" encoding="UTF-8" standalone="no"?>
<!-- Generator: Adobe Illustrator 27.7.0, SVG Export Plug-In . SVG Version: 6.00 Build 0)  -->

<svg
   version="1.1"
   id="Layer_4"
   x="0px"
   y="0px"
   viewBox="0 0 850 330"
   xml:space="preserve"
   sodipodi:docname="text.svg"
   width="850"
   height="330"
   inkscape:version="1.3.2 (091e20ef0f, 2023-11-25, custom)"
   xmlns:inkscape="http://www.inkscape.org/namespaces/inkscape"
   xmlns:sodipodi="http://sodipodi.sourceforge.net/DTD/sodipodi-0.dtd"
   xmlns="http://www.w3.org/2000/svg"
   xmlns:svg="http://www.w3.org/2000/svg"><defs
   id="defs303">
	
	

		
		
		
		
	
			
			
			
			
			
			
			
			
			
			
			
			
		
			
			
		
				
				
				
				
			
				
				
				
				
			
				
				
				
				
				
				
			
				
			
					
					
					
					
					
					
				</defs><sodipodi:namedview
   id="namedview303"
   pagecolor="#ffffff"
   bordercolor="#000000"
   borderopacity="0.25"
   inkscape:showpageshadow="2"
   inkscape:pageopacity="0.0"
   inkscape:pagecheckerboard="true"
   inkscape:deskcolor="#d1d1d1"
   showguides="true"
   inkscape:zoom="1.7697917"
   inkscape:cx="394.96173"
   inkscape:cy="221.77751"
   inkscape:window-width="2560"
   inkscape:window-height="1371"
   inkscape:window-x="0"
   inkscape:window-y="0"
   inkscape:window-maximized="1"
   inkscape:current-layer="Layer_4" />
<style
   type="text/css"
   id="style1">
	.st0{fill:#FFFFFF;}
	.st1{fill:#EC4A00;}
	.st2{fill:#FFFFF4;}
	.st3{fill:#629AB0;}
	.st4{fill:#C8102E;}
	.st5{fill:#74A3C1;}
	.st6{fill:#EC6C47;}
	.st7{fill:#FDF4D7;}
	.st8{opacity:0.47;fill:#730531;}
	.st9{opacity:0.47;fill:#910E2F;}
	.st10{opacity:0.47;fill:#1A1240;}
	.st11{opacity:0.18;}
</style>
<g
   id="g1"><g
     id="g303"
     style="stroke:none;stroke-opacity:0.809512"
     transform="translate(-536.71131,-618.17613)"><g
       id="g227"
       style="stroke:none;stroke-width:22;stroke-linecap:butt;stroke-linejoin:miter;stroke-dasharray:none;stroke-opacity:0.809512;paint-order:markers stroke fill">
			<polygon
   points="559.99,902.11 614.88,733.03 704.65,735.76 747.05,899.74 658.18,908.47 654.58,884.97 654.31,884.97 648.72,908.61 "
   id="polygon213"
   style="stroke:none;stroke-width:22;stroke-linecap:butt;stroke-linejoin:miter;stroke-dasharray:none;stroke-opacity:0.809512;paint-order:markers stroke fill" />
			<polygon
   points="688.83,902.11 743.72,733.03 833.49,735.76 875.89,899.74 787.02,908.47 783.42,884.97 783.15,884.97 777.56,908.61 "
   id="polygon214"
   style="stroke:none;stroke-width:22;stroke-linecap:butt;stroke-linejoin:miter;stroke-dasharray:none;stroke-opacity:0.809512;paint-order:markers stroke fill" />
			<path
   d="m 921.1,898.01 1.94,9.84 -85.28,-3.41 -6.02,-157.99 12.02,-3.62 c 18.38,-5.54 49.63,-10.04 69.65,-10.04 0.48,0 0.95,0 1.41,0.01 46.73,0.49 76.91,24.43 76.91,60.97 0,16.71 -6.26,31.61 -17.01,42.21 l 32.53,25.2 -61.95,64.62 z"
   id="path214"
   style="stroke:none;stroke-width:22;stroke-linecap:butt;stroke-linejoin:miter;stroke-dasharray:none;stroke-opacity:0.809512;paint-order:markers stroke fill" />
			<polygon
   points="1038.96,906.74 958.39,903.63 963.29,739.48 1041.41,734.83 1041.43,733.46 1121.39,736.1 1125.55,904.45 1038.94,907.67 "
   id="polygon215"
   style="stroke:none;stroke-width:22;stroke-linecap:butt;stroke-linejoin:miter;stroke-dasharray:none;stroke-opacity:0.809512;paint-order:markers stroke fill" />
			<path
   d="m 1171.35,907.44 c -29.46,0 -51.35,-9.22 -65.04,-27.4 -19.67,-26.12 -20.6,-68.82 -2.86,-130.52 l 3.01,-10.46 57.91,-6.38 -0.04,-0.37 2.39,0.11 19.78,-2.18 -0.65,3.1 54.41,2.61 3.31,10.98 c 7.9,26.2 11.31,50.68 10.13,72.73 -1.25,23.26 -7.51,42.64 -18.62,57.59 -14.69,19.76 -36.72,30.19 -63.73,30.19 z"
   id="path215"
   style="stroke:none;stroke-width:22;stroke-linecap:butt;stroke-linejoin:miter;stroke-dasharray:none;stroke-opacity:0.809512;paint-order:markers stroke fill" />
			<path
   d="m 1284.88,907.24 c -15.92,0 -47.1,-3.31 -63,-12.21 l -11.58,-6.48 17.42,-54.49 c -5.97,-7.38 -10.57,-18.13 -10.57,-33.74 0,-17.79 8.04,-35.02 22.06,-47.25 14.61,-12.75 34.32,-19.49 57,-19.49 18.88,0 39.72,4.56 53.11,11.62 l 12.28,6.48 -17.59,51.46 c 9.65,6.85 19.14,19.37 19.14,42.13 0,17.9 -7.38,33.82 -20.78,44.81 -13.87,11.39 -33.21,17.16 -57.49,17.16 z"
   id="path216"
   style="stroke:none;stroke-width:22;stroke-linecap:butt;stroke-linejoin:miter;stroke-dasharray:none;stroke-opacity:0.809512;paint-order:markers stroke fill" />
			<path
   d="m 878.71,761.12 -56.94,-2.28 -3.94,-103.42 12.02,-3.62 c 11.41,-3.44 30.06,-6.13 42.47,-6.13 0.3,0 0.6,0 0.89,0 14.16,0.15 26.38,3.7 35.32,10.25 10.41,7.63 16.14,18.99 16.14,32 0,8.79 -2.5,16.87 -6.97,23.48 l 19.34,14.98 -46.41,48.4 z m -7.14,-76.39"
   id="path217"
   style="stroke:none;stroke-width:22;stroke-linecap:butt;stroke-linejoin:miter;stroke-dasharray:none;stroke-opacity:0.809512;paint-order:markers stroke fill" />
			<path
   d="m 942.2,760.84 c -19.39,0 -33.94,-6.27 -43.25,-18.65 -12.81,-17.02 -13.72,-43.8 -2.77,-81.88 l 3.01,-10.46 31.48,-3.47 -0.15,-1.37 8.77,0.42 20.29,-2.24 -0.67,3.18 28.48,1.37 3.31,10.98 c 10.2,33.83 8.07,62.88 -5.99,81.81 -9.72,13.11 -24.82,20.31 -42.51,20.31 z"
   id="path218"
   style="stroke:none;stroke-width:22;stroke-linecap:butt;stroke-linejoin:miter;stroke-dasharray:none;stroke-opacity:0.809512;paint-order:markers stroke fill" />
			<path
   d="m 1008.24,760.73 c -7.15,0 -28.28,-1.43 -39.96,-7.96 l -11.58,-6.48 10.8,-33.79 c -3.12,-4.99 -5.45,-11.73 -5.45,-20.75 0,-22.11 18.5,-45.61 52.78,-45.61 12,0 25.37,2.96 34.06,7.54 l 12.28,6.48 -10.62,31.07 c 5.19,5.16 10.01,13.49 10.01,26.66 0,12.49 -5.17,23.61 -14.57,31.32 -9.31,7.64 -22.02,11.52 -37.75,11.52 z"
   id="path219"
   style="stroke:none;stroke-width:22;stroke-linecap:butt;stroke-linejoin:miter;stroke-dasharray:none;stroke-opacity:0.809512;paint-order:markers stroke fill" />
			<polygon
   points="1043.42,703.82 1021.4,703.49 1017.74,650.08 1129,644.72 1125.88,705.11 1104.89,704.78 1106.46,757.8 1042,762.59 "
   id="polygon219"
   style="stroke:none;stroke-width:22;stroke-linecap:butt;stroke-linejoin:miter;stroke-dasharray:none;stroke-opacity:0.809512;paint-order:markers stroke fill" />
			<g
   id="g223"
   style="stroke:none;stroke-width:22;stroke-linecap:butt;stroke-linejoin:miter;stroke-dasharray:none;stroke-opacity:0.809512;paint-order:markers stroke fill">
				<path
   class="st0"
   d="m 834.53,667.35 c 9.6,-2.89 27.18,-5.55 38.51,-5.44 21.86,0.23 35.39,10.06 35.39,26.02 0,11.68 -6.82,20.47 -16.65,23.48 v 0.46 l 21.05,16.31 -21.63,22.55 -29.61,-34 -0.69,0.12 5.44,27.53 -28.91,-1.16 z m 36.31,33.66 c 7.17,0 11.33,-3.01 11.33,-8.91 0,-5.9 -3.82,-9.25 -10.64,-9.25 -4.63,0 -7.52,1.04 -9.48,2.31 l 0.46,15.61 c 3.48,0.24 4.86,0.24 8.33,0.24 z"
   id="path220"
   style="stroke:none;stroke-width:22;stroke-linecap:butt;stroke-linejoin:miter;stroke-dasharray:none;stroke-opacity:0.809512;paint-order:markers stroke fill" />
				<path
   class="st0"
   d="m 911.78,664.81 27.29,-3.01 c -4.51,21.4 -8.67,57.94 3.93,57.94 12.49,0 8.67,-29.38 5.67,-57.6 l 26.48,1.27 c 13.88,46.03 1.73,81.19 -32.96,81.19 -36.19,0.01 -45.67,-26.71 -30.41,-79.79 z"
   id="path221"
   style="stroke:none;stroke-width:22;stroke-linecap:butt;stroke-linejoin:miter;stroke-dasharray:none;stroke-opacity:0.809512;paint-order:markers stroke fill" />
				<path
   class="st0"
   d="m 1014.83,662.38 c 9.37,0 20.12,2.31 26.48,5.67 l -7.75,22.67 c -3.93,-1.73 -10.41,-3.01 -15.5,-2.89 -8.1,0.23 -11.57,1.97 -10.76,5.55 1.73,7.98 37.01,-5.78 37.01,24.52 0,14.57 -10.99,26.6 -36.08,26.6 -9.25,0 -25.21,-2.08 -32.04,-5.9 l 8.1,-25.33 c 3.01,1.97 13.53,8.67 22.09,9.25 7.4,0.58 9.14,-4.39 8.21,-6.25 -3.7,-7.17 -36.31,4.16 -36.31,-24.52 0,-15.15 13.42,-29.37 36.55,-29.37 z"
   id="path222"
   style="stroke:none;stroke-width:22;stroke-linecap:butt;stroke-linejoin:miter;stroke-dasharray:none;stroke-opacity:0.809512;paint-order:markers stroke fill" />
				<path
   class="st0"
   d="m 1058.66,745.07 1.39,-57.25 -23.48,-0.35 -1.5,-21.97 76.79,-3.7 -1.39,26.83 -22.32,-0.35 1.62,54.47 z"
   id="path223"
   style="stroke:none;stroke-width:22;stroke-linecap:butt;stroke-linejoin:miter;stroke-dasharray:none;stroke-opacity:0.809512;paint-order:markers stroke fill" />
			</g>
			<g
   class="st11"
   id="g226"
   style="stroke:none;stroke-width:22;stroke-linecap:butt;stroke-linejoin:miter;stroke-dasharray:none;stroke-opacity:0.809512;paint-order:markers stroke fill">
				<path
   d="m 886.13,707.24 3.99,-1.22 c 0.48,-0.15 0.95,-0.31 1.4,-0.49 h -13.23 c -2.08,0.71 -4.55,1.12 -7.45,1.12 -3.46,0 -5.04,0 -8.7,-0.24 l -5.11,-0.34 -0.02,-0.53 h -15.39 l 1.23,32.26 16.56,0.66 -5.17,-26.2 9.53,-1.6 27.63,31.73 13.02,-13.57 -18.28,-14.16 v -7.42 z"
   id="path224"
   style="stroke:none;stroke-width:22;stroke-linecap:butt;stroke-linejoin:miter;stroke-dasharray:none;stroke-opacity:0.809512;paint-order:markers stroke fill" />
				<path
   d="m 957.11,705.53 c -0.49,7.16 -2.02,12.43 -5.1,15.86 -2.35,2.61 -5.46,3.99 -9,3.99 -3.55,0 -6.65,-1.51 -8.98,-4.38 -2.81,-3.46 -4.23,-9.04 -4.77,-15.48 h -18.85 c -0.06,10.23 1.94,18.1 6.01,23.51 5.03,6.68 13.46,9.93 25.78,9.93 10.9,0 19.3,-3.86 24.95,-11.47 4.2,-5.65 6.75,-13.14 7.65,-21.97 h -17.69 z"
   id="path225"
   style="stroke:none;stroke-width:22;stroke-linecap:butt;stroke-linejoin:miter;stroke-dasharray:none;stroke-opacity:0.809512;paint-order:markers stroke fill" />
				<path
   d="m 1033.68,705.53 h -41.39 c 3.19,1.11 7.22,1.58 11.94,1.97 6.54,0.54 12.73,1.05 15.41,6.25 1.31,2.62 1.04,5.99 -0.7,8.81 -2.22,3.59 -6.37,5.65 -11.4,5.65 -0.52,0 -1.06,-0.02 -1.54,-0.06 -6.11,-0.41 -12.78,-3.22 -18.51,-6.37 l -4.34,13.58 c 6.74,2.08 17.53,3.49 25.08,3.49 19.35,0 30.44,-7.64 30.44,-20.96 0.01,-6.45 -1.75,-10.17 -4.99,-12.36 z"
   id="path226"
   style="stroke:none;stroke-width:22;stroke-linecap:butt;stroke-linejoin:miter;stroke-dasharray:none;stroke-opacity:0.809512;paint-order:markers stroke fill" />
				<polygon
   points="1065.26,705.53 1064.45,738.98 1083.97,737.53 1083.02,705.53 "
   id="polygon226"
   style="stroke:none;stroke-width:22;stroke-linecap:butt;stroke-linejoin:miter;stroke-dasharray:none;stroke-opacity:0.809512;paint-order:markers stroke fill" />
			</g>
		</g><g
       id="g237"
       style="stroke:none;stroke-opacity:0.809512">
			<g
   id="g232"
   style="stroke:none;stroke-opacity:0.809512">
				<path
   class="st0"
   d="m 626.56,749.63 65.42,1.99 34.6,133.82 -54.68,5.37 -3.38,-22.07 h -27.04 l -5.37,22.67 -54.28,-3.98 z m 42.55,90.87 -11.13,-53.09 h -3.58 l -15.31,53.09 z"
   id="path227"
   style="stroke:none;stroke-opacity:0.809512" />
				<path
   class="st0"
   d="m 755.4,749.63 65.42,1.99 34.6,133.82 -54.68,5.37 -3.38,-22.07 h -27.04 l -5.37,22.67 -54.28,-3.98 z m 42.55,90.87 -11.13,-53.09 h -3.58 l -15.31,53.09 z"
   id="path228"
   style="stroke:none;stroke-opacity:0.809512" />
				<path
   class="st0"
   d="m 848.45,758.38 c 16.5,-4.97 46.73,-9.54 66.21,-9.35 37.58,0.4 60.84,17.3 60.84,44.74 0,20.08 -11.73,35.19 -28.63,40.36 v 0.8 l 36.19,28.04 -37.18,38.77 -50.9,-58.46 -1.19,0.2 9.35,47.32 -49.71,-1.99 z m 62.44,57.86 c 12.33,0 19.49,-5.17 19.49,-15.31 0,-10.14 -6.56,-15.91 -18.29,-15.91 -7.95,0 -12.92,1.79 -16.3,3.98 l 0.8,26.84 c 5.94,0.4 8.33,0.4 14.3,0.4 z"
   id="path229"
   style="stroke:none;stroke-opacity:0.809512" />
				<path
   class="st0"
   d="m 979.08,754.8 50.11,-2.98 -0.99,53.69 28.43,-0.99 0.8,-54.28 48.12,1.59 3.38,137 -53.49,1.99 0.8,-52.89 -28.63,-1.59 -0.99,53.69 -51.5,-1.99 z"
   id="path230"
   style="stroke:none;stroke-opacity:0.809512" />
				<path
   class="st0"
   d="m 1119.05,754.01 46.93,-5.17 c -7.75,36.79 -14.91,99.62 6.76,99.62 21.47,0 14.91,-50.5 9.74,-99.02 l 45.53,2.19 c 23.86,79.14 2.98,139.59 -56.67,139.59 -62.23,-0.01 -78.53,-45.95 -52.29,-137.21 z"
   id="path231"
   style="stroke:none;stroke-opacity:0.809512" />
				<path
   class="st0"
   d="m 1296.21,749.83 c 16.11,0 34.6,3.98 45.53,9.74 l -13.32,38.97 c -6.76,-2.98 -17.9,-5.17 -26.64,-4.97 -13.92,0.4 -19.88,3.38 -18.49,9.54 2.98,13.72 63.63,-9.94 63.63,42.15 0,25.05 -18.89,45.73 -62.04,45.73 -15.91,0 -43.35,-3.58 -55.08,-10.14 l 13.92,-43.55 c 5.17,3.38 23.26,14.91 37.98,15.91 12.73,0.99 15.71,-7.56 14.12,-10.74 -6.36,-12.33 -62.44,7.16 -62.44,-42.15 0,-26.03 23.06,-50.49 62.83,-50.49 z"
   id="path232"
   style="stroke:none;stroke-opacity:0.809512" />
			</g>
			<g
   id="g236"
   style="stroke:none;stroke-opacity:0.809512">
				<g
   class="st11"
   id="g235"
   style="stroke:none;stroke-opacity:0.809512">
					<polygon
   points="608.76,823.82 589.87,882.02 631.46,885.07 636.74,862.76 673.65,862.76 676.95,884.3 719.04,880.17 704.47,823.82 671.72,823.82 676.48,846.48 631.14,846.48 637.67,823.82 "
   id="polygon232"
   style="stroke:none;stroke-opacity:0.809512" />
					<polygon
   points="737.6,823.82 718.71,882.02 760.3,885.07 765.58,862.76 802.49,862.76 805.79,884.3 847.88,880.17 833.31,823.82 800.56,823.82 805.32,846.48 759.98,846.48 766.51,823.82 "
   id="polygon233"
   style="stroke:none;stroke-opacity:0.809512" />
					<path
   d="m 940.89,829.71 4.23,-1.3 c 3.53,-1.08 6.74,-2.64 9.59,-4.6 h -97.79 l 2.26,59.25 36.61,1.46 -9.07,-45.93 10.57,-1.76 48.8,56.05 28.05,-29.25 -33.25,-25.76 z"
   id="path233"
   style="stroke:none;stroke-opacity:0.809512" />
					<polygon
   points="983,823.82 981.26,882.28 1020.74,883.8 1021.73,830.01 1062.3,832.26 1061.51,884.6 1102.8,883.06 1101.33,823.82 "
   id="polygon234"
   style="stroke:none;stroke-opacity:0.809512" />
					<path
   d="m 1193.3,823.82 c -0.81,11.07 -3.13,19.73 -7.85,24.99 -3.31,3.68 -7.7,5.63 -12.71,5.63 -4.94,0 -9.28,-2.13 -12.54,-6.15 -4.34,-5.35 -6.55,-14.18 -7.4,-24.47 h -39.77 c -0.13,18.57 3.54,32.91 11.03,42.86 9.4,12.48 24.87,18.55 47.29,18.55 19.99,0 35.42,-7.14 45.88,-21.22 7.7,-10.36 12.34,-24.07 13.9,-40.19 z"
   id="path234"
   style="stroke:none;stroke-opacity:0.809512" />
					<path
   d="m 1334.21,823.82 h -85.32 c 6.82,4.92 16.89,6.31 28.8,7.3 10.64,0.88 19.83,1.64 23.47,8.7 1.68,3.36 1.28,7.78 -1.04,11.53 -3.12,5.05 -9.11,7.95 -16.44,7.95 v 0 c -0.8,0 -1.62,-0.03 -2.39,-0.09 -11.28,-0.76 -23.97,-6.69 -34.22,-12.74 l -9.97,31.18 c 11.74,4.44 33.12,7.39 47.77,7.39 18.74,0 33.75,-4.19 43.41,-12.11 8.28,-6.79 12.65,-16.35 12.65,-27.64 0.01,-10.27 -2.42,-17 -6.72,-21.47 z"
   id="path235"
   style="stroke:none;stroke-opacity:0.809512" />
				</g>
			</g>
		</g></g></g>
</svg>
